<mxfile host="Electron" modified="2024-02-14T20:08:36.807Z" agent="Mozilla/5.0 (Macintosh; Intel Mac OS X 10_15_7) AppleWebKit/537.36 (KHTML, like Gecko) draw.io/23.0.2 Chrome/120.0.6099.109 Electron/28.1.0 Safari/537.36" etag="TjonY1HmKgA-3yuoceGj" version="23.0.2" type="device">
  <diagram name="Page-1" id="wRzxH92B9691VnuoYt-X">
    <mxGraphModel dx="1114" dy="854" grid="1" gridSize="10" guides="1" tooltips="1" connect="1" arrows="1" fold="1" page="1" pageScale="1" pageWidth="1100" pageHeight="850" math="0" shadow="0">
      <root>
        <mxCell id="0" />
        <mxCell id="1" parent="0" />
        <mxCell id="VbIrvGBxKGuF73QIQbJC-100" value="" style="group" parent="1" vertex="1" connectable="0">
          <mxGeometry x="50" y="130" width="60" height="30" as="geometry" />
        </mxCell>
        <mxCell id="VbIrvGBxKGuF73QIQbJC-98" value="" style="rounded=1;whiteSpace=wrap;html=1;" parent="VbIrvGBxKGuF73QIQbJC-100" vertex="1">
          <mxGeometry width="60" height="30" as="geometry" />
        </mxCell>
        <mxCell id="VbIrvGBxKGuF73QIQbJC-99" value="&lt;font style=&quot;font-size: 20px;&quot;&gt;ESA&lt;/font&gt;" style="text;html=1;strokeColor=none;fillColor=none;align=center;verticalAlign=middle;whiteSpace=wrap;rounded=0;" parent="VbIrvGBxKGuF73QIQbJC-100" vertex="1">
          <mxGeometry width="60" height="30" as="geometry" />
        </mxCell>
        <mxCell id="VbIrvGBxKGuF73QIQbJC-108" value="" style="group" parent="1" vertex="1" connectable="0">
          <mxGeometry x="130" y="130" width="60" height="30" as="geometry" />
        </mxCell>
        <mxCell id="VbIrvGBxKGuF73QIQbJC-109" value="" style="rounded=1;whiteSpace=wrap;html=1;" parent="VbIrvGBxKGuF73QIQbJC-108" vertex="1">
          <mxGeometry width="60" height="30" as="geometry" />
        </mxCell>
        <mxCell id="VbIrvGBxKGuF73QIQbJC-110" value="&lt;font style=&quot;font-size: 20px;&quot;&gt;THM&lt;/font&gt;" style="text;html=1;strokeColor=none;fillColor=none;align=center;verticalAlign=middle;whiteSpace=wrap;rounded=0;" parent="VbIrvGBxKGuF73QIQbJC-108" vertex="1">
          <mxGeometry width="60" height="30" as="geometry" />
        </mxCell>
        <mxCell id="VbIrvGBxKGuF73QIQbJC-111" value="" style="group" parent="1" vertex="1" connectable="0">
          <mxGeometry x="50" y="180" width="60" height="30" as="geometry" />
        </mxCell>
        <mxCell id="VbIrvGBxKGuF73QIQbJC-112" value="" style="rounded=1;whiteSpace=wrap;html=1;" parent="VbIrvGBxKGuF73QIQbJC-111" vertex="1">
          <mxGeometry width="60" height="30" as="geometry" />
        </mxCell>
        <mxCell id="VbIrvGBxKGuF73QIQbJC-113" value="&lt;font style=&quot;font-size: 20px;&quot;&gt;SAT&lt;/font&gt;" style="text;html=1;strokeColor=none;fillColor=none;align=center;verticalAlign=middle;whiteSpace=wrap;rounded=0;" parent="VbIrvGBxKGuF73QIQbJC-111" vertex="1">
          <mxGeometry width="60" height="30" as="geometry" />
        </mxCell>
        <mxCell id="VbIrvGBxKGuF73QIQbJC-114" value="" style="group" parent="1" vertex="1" connectable="0">
          <mxGeometry x="170" y="180" width="60" height="30" as="geometry" />
        </mxCell>
        <mxCell id="VbIrvGBxKGuF73QIQbJC-115" value="" style="rounded=1;whiteSpace=wrap;html=1;" parent="VbIrvGBxKGuF73QIQbJC-114" vertex="1">
          <mxGeometry width="60" height="30" as="geometry" />
        </mxCell>
        <mxCell id="VbIrvGBxKGuF73QIQbJC-116" value="&lt;font style=&quot;font-size: 20px;&quot;&gt;CAX&lt;/font&gt;" style="text;html=1;strokeColor=none;fillColor=none;align=center;verticalAlign=middle;whiteSpace=wrap;rounded=0;" parent="VbIrvGBxKGuF73QIQbJC-114" vertex="1">
          <mxGeometry width="60" height="30" as="geometry" />
        </mxCell>
        <mxCell id="VbIrvGBxKGuF73QIQbJC-117" value="" style="group" parent="1" vertex="1" connectable="0">
          <mxGeometry x="210" y="130" width="60" height="30" as="geometry" />
        </mxCell>
        <mxCell id="VbIrvGBxKGuF73QIQbJC-118" value="" style="rounded=1;whiteSpace=wrap;html=1;" parent="VbIrvGBxKGuF73QIQbJC-117" vertex="1">
          <mxGeometry width="60" height="30" as="geometry" />
        </mxCell>
        <mxCell id="VbIrvGBxKGuF73QIQbJC-132" style="edgeStyle=orthogonalEdgeStyle;rounded=0;orthogonalLoop=1;jettySize=auto;html=1;exitX=0.5;exitY=1;exitDx=0;exitDy=0;" parent="VbIrvGBxKGuF73QIQbJC-117" source="VbIrvGBxKGuF73QIQbJC-119" edge="1">
          <mxGeometry relative="1" as="geometry">
            <mxPoint x="-10" y="50" as="targetPoint" />
            <Array as="points">
              <mxPoint x="30" y="40" />
              <mxPoint x="-9" y="40" />
            </Array>
          </mxGeometry>
        </mxCell>
        <mxCell id="VbIrvGBxKGuF73QIQbJC-119" value="&lt;font style=&quot;font-size: 20px;&quot;&gt;CTH&lt;/font&gt;" style="text;html=1;strokeColor=none;fillColor=none;align=center;verticalAlign=middle;whiteSpace=wrap;rounded=0;" parent="VbIrvGBxKGuF73QIQbJC-117" vertex="1">
          <mxGeometry width="60" height="30" as="geometry" />
        </mxCell>
        <mxCell id="VbIrvGBxKGuF73QIQbJC-120" value="" style="group" parent="1" vertex="1" connectable="0">
          <mxGeometry x="290" y="180" width="60" height="30" as="geometry" />
        </mxCell>
        <mxCell id="VbIrvGBxKGuF73QIQbJC-121" value="" style="rounded=1;whiteSpace=wrap;html=1;" parent="VbIrvGBxKGuF73QIQbJC-120" vertex="1">
          <mxGeometry width="60" height="30" as="geometry" />
        </mxCell>
        <mxCell id="VbIrvGBxKGuF73QIQbJC-122" value="&lt;font style=&quot;font-size: 20px;&quot;&gt;UNS&lt;/font&gt;" style="text;html=1;strokeColor=none;fillColor=none;align=center;verticalAlign=middle;whiteSpace=wrap;rounded=0;" parent="VbIrvGBxKGuF73QIQbJC-120" vertex="1">
          <mxGeometry width="60" height="30" as="geometry" />
        </mxCell>
        <mxCell id="VbIrvGBxKGuF73QIQbJC-123" value="" style="group" parent="1" vertex="1" connectable="0">
          <mxGeometry x="290" y="130" width="60" height="30" as="geometry" />
        </mxCell>
        <mxCell id="VbIrvGBxKGuF73QIQbJC-124" value="" style="rounded=1;whiteSpace=wrap;html=1;" parent="VbIrvGBxKGuF73QIQbJC-123" vertex="1">
          <mxGeometry width="60" height="30" as="geometry" />
        </mxCell>
        <mxCell id="VbIrvGBxKGuF73QIQbJC-125" value="&lt;font style=&quot;font-size: 20px;&quot;&gt;CSA&lt;/font&gt;" style="text;html=1;strokeColor=none;fillColor=none;align=center;verticalAlign=middle;whiteSpace=wrap;rounded=0;" parent="VbIrvGBxKGuF73QIQbJC-123" vertex="1">
          <mxGeometry width="60" height="30" as="geometry" />
        </mxCell>
        <mxCell id="VbIrvGBxKGuF73QIQbJC-126" style="edgeStyle=orthogonalEdgeStyle;rounded=0;orthogonalLoop=1;jettySize=auto;html=1;exitX=0.5;exitY=1;exitDx=0;exitDy=0;entryX=0.5;entryY=0;entryDx=0;entryDy=0;" parent="1" target="VbIrvGBxKGuF73QIQbJC-110" edge="1">
          <mxGeometry relative="1" as="geometry">
            <Array as="points">
              <mxPoint x="200" y="120" />
              <mxPoint x="160" y="120" />
            </Array>
            <mxPoint x="200" y="110" as="sourcePoint" />
          </mxGeometry>
        </mxCell>
        <mxCell id="VbIrvGBxKGuF73QIQbJC-128" style="edgeStyle=orthogonalEdgeStyle;rounded=0;orthogonalLoop=1;jettySize=auto;html=1;exitX=0.5;exitY=1;exitDx=0;exitDy=0;entryX=0.5;entryY=0;entryDx=0;entryDy=0;" parent="1" target="VbIrvGBxKGuF73QIQbJC-119" edge="1">
          <mxGeometry relative="1" as="geometry">
            <Array as="points">
              <mxPoint x="200" y="120" />
              <mxPoint x="240" y="120" />
            </Array>
            <mxPoint x="200" y="110" as="sourcePoint" />
          </mxGeometry>
        </mxCell>
        <mxCell id="VbIrvGBxKGuF73QIQbJC-129" style="edgeStyle=orthogonalEdgeStyle;rounded=0;orthogonalLoop=1;jettySize=auto;html=1;exitX=0.5;exitY=1;exitDx=0;exitDy=0;entryX=0.5;entryY=0;entryDx=0;entryDy=0;" parent="1" target="VbIrvGBxKGuF73QIQbJC-125" edge="1">
          <mxGeometry relative="1" as="geometry">
            <Array as="points">
              <mxPoint x="200" y="120" />
              <mxPoint x="320" y="120" />
            </Array>
            <mxPoint x="200" y="110" as="sourcePoint" />
          </mxGeometry>
        </mxCell>
        <mxCell id="VbIrvGBxKGuF73QIQbJC-130" style="edgeStyle=orthogonalEdgeStyle;rounded=0;orthogonalLoop=1;jettySize=auto;html=1;exitX=0.5;exitY=1;exitDx=0;exitDy=0;entryX=0.5;entryY=0;entryDx=0;entryDy=0;" parent="1" target="VbIrvGBxKGuF73QIQbJC-99" edge="1">
          <mxGeometry relative="1" as="geometry">
            <Array as="points">
              <mxPoint x="200" y="120" />
              <mxPoint x="80" y="120" />
            </Array>
            <mxPoint x="200" y="110" as="sourcePoint" />
          </mxGeometry>
        </mxCell>
        <mxCell id="VbIrvGBxKGuF73QIQbJC-131" style="edgeStyle=orthogonalEdgeStyle;rounded=0;orthogonalLoop=1;jettySize=auto;html=1;exitX=0.5;exitY=1;exitDx=0;exitDy=0;entryX=0.5;entryY=0;entryDx=0;entryDy=0;" parent="1" source="VbIrvGBxKGuF73QIQbJC-110" target="VbIrvGBxKGuF73QIQbJC-116" edge="1">
          <mxGeometry relative="1" as="geometry">
            <Array as="points">
              <mxPoint x="160" y="170" />
              <mxPoint x="200" y="170" />
            </Array>
          </mxGeometry>
        </mxCell>
        <mxCell id="VbIrvGBxKGuF73QIQbJC-133" style="edgeStyle=orthogonalEdgeStyle;rounded=0;orthogonalLoop=1;jettySize=auto;html=1;exitX=0.5;exitY=1;exitDx=0;exitDy=0;entryX=0.5;entryY=0;entryDx=0;entryDy=0;" parent="1" source="VbIrvGBxKGuF73QIQbJC-125" target="VbIrvGBxKGuF73QIQbJC-122" edge="1">
          <mxGeometry relative="1" as="geometry" />
        </mxCell>
        <mxCell id="VbIrvGBxKGuF73QIQbJC-134" style="edgeStyle=orthogonalEdgeStyle;rounded=0;orthogonalLoop=1;jettySize=auto;html=1;exitX=0.5;exitY=1;exitDx=0;exitDy=0;entryX=0.5;entryY=0;entryDx=0;entryDy=0;" parent="1" source="VbIrvGBxKGuF73QIQbJC-99" target="VbIrvGBxKGuF73QIQbJC-113" edge="1">
          <mxGeometry relative="1" as="geometry" />
        </mxCell>
        <mxCell id="yGMEvP6t2i3Ru4Q6ysOB-1" value="" style="group" vertex="1" connectable="0" parent="1">
          <mxGeometry x="170" y="80" width="60" height="30" as="geometry" />
        </mxCell>
        <mxCell id="yGMEvP6t2i3Ru4Q6ysOB-2" value="" style="rounded=1;whiteSpace=wrap;html=1;" vertex="1" parent="yGMEvP6t2i3Ru4Q6ysOB-1">
          <mxGeometry width="60" height="30" as="geometry" />
        </mxCell>
        <mxCell id="yGMEvP6t2i3Ru4Q6ysOB-3" value="&lt;font style=&quot;font-size: 20px;&quot;&gt;SUC&lt;/font&gt;" style="text;html=1;strokeColor=none;fillColor=none;align=center;verticalAlign=middle;whiteSpace=wrap;rounded=0;" vertex="1" parent="yGMEvP6t2i3Ru4Q6ysOB-1">
          <mxGeometry width="60" height="30" as="geometry" />
        </mxCell>
        <mxCell id="yGMEvP6t2i3Ru4Q6ysOB-4" value="" style="group" vertex="1" connectable="0" parent="1">
          <mxGeometry x="470" y="80" width="60" height="30" as="geometry" />
        </mxCell>
        <mxCell id="yGMEvP6t2i3Ru4Q6ysOB-5" value="" style="rounded=1;whiteSpace=wrap;html=1;" vertex="1" parent="yGMEvP6t2i3Ru4Q6ysOB-4">
          <mxGeometry width="60" height="30" as="geometry" />
        </mxCell>
        <mxCell id="yGMEvP6t2i3Ru4Q6ysOB-6" value="&lt;font style=&quot;font-size: 20px;&quot;&gt;NOS&lt;/font&gt;" style="text;html=1;strokeColor=none;fillColor=none;align=center;verticalAlign=middle;whiteSpace=wrap;rounded=0;" vertex="1" parent="yGMEvP6t2i3Ru4Q6ysOB-4">
          <mxGeometry width="60" height="30" as="geometry" />
        </mxCell>
        <mxCell id="yGMEvP6t2i3Ru4Q6ysOB-13" value="" style="group" vertex="1" connectable="0" parent="1">
          <mxGeometry x="560" y="180" width="60" height="30" as="geometry" />
        </mxCell>
        <mxCell id="yGMEvP6t2i3Ru4Q6ysOB-14" value="" style="rounded=1;whiteSpace=wrap;html=1;" vertex="1" parent="yGMEvP6t2i3Ru4Q6ysOB-13">
          <mxGeometry width="60" height="30" as="geometry" />
        </mxCell>
        <mxCell id="yGMEvP6t2i3Ru4Q6ysOB-15" value="&lt;font style=&quot;font-size: 20px;&quot;&gt;IAP&lt;/font&gt;" style="text;html=1;strokeColor=none;fillColor=none;align=center;verticalAlign=middle;whiteSpace=wrap;rounded=0;" vertex="1" parent="yGMEvP6t2i3Ru4Q6ysOB-13">
          <mxGeometry width="60" height="30" as="geometry" />
        </mxCell>
        <mxCell id="yGMEvP6t2i3Ru4Q6ysOB-16" value="" style="group" vertex="1" connectable="0" parent="1">
          <mxGeometry x="510" y="130" width="60" height="30" as="geometry" />
        </mxCell>
        <mxCell id="yGMEvP6t2i3Ru4Q6ysOB-17" value="" style="rounded=1;whiteSpace=wrap;html=1;" vertex="1" parent="yGMEvP6t2i3Ru4Q6ysOB-16">
          <mxGeometry width="60" height="30" as="geometry" />
        </mxCell>
        <mxCell id="yGMEvP6t2i3Ru4Q6ysOB-31" style="edgeStyle=orthogonalEdgeStyle;rounded=0;orthogonalLoop=1;jettySize=auto;html=1;exitX=0.5;exitY=1;exitDx=0;exitDy=0;" edge="1" parent="yGMEvP6t2i3Ru4Q6ysOB-16" source="yGMEvP6t2i3Ru4Q6ysOB-18">
          <mxGeometry relative="1" as="geometry">
            <mxPoint x="-100" y="50" as="targetPoint" />
            <Array as="points">
              <mxPoint x="30" y="40" />
              <mxPoint x="-99" y="40" />
            </Array>
          </mxGeometry>
        </mxCell>
        <mxCell id="yGMEvP6t2i3Ru4Q6ysOB-18" value="&lt;font style=&quot;font-size: 20px;&quot;&gt;GUP&lt;/font&gt;" style="text;html=1;strokeColor=none;fillColor=none;align=center;verticalAlign=middle;whiteSpace=wrap;rounded=0;" vertex="1" parent="yGMEvP6t2i3Ru4Q6ysOB-16">
          <mxGeometry width="60" height="30" as="geometry" />
        </mxCell>
        <mxCell id="yGMEvP6t2i3Ru4Q6ysOB-19" value="" style="group" vertex="1" connectable="0" parent="1">
          <mxGeometry x="380" y="180" width="60" height="30" as="geometry" />
        </mxCell>
        <mxCell id="yGMEvP6t2i3Ru4Q6ysOB-20" value="" style="rounded=1;whiteSpace=wrap;html=1;" vertex="1" parent="yGMEvP6t2i3Ru4Q6ysOB-19">
          <mxGeometry width="60" height="30" as="geometry" />
        </mxCell>
        <mxCell id="yGMEvP6t2i3Ru4Q6ysOB-21" value="&lt;font style=&quot;font-size: 20px;&quot;&gt;ERR&lt;/font&gt;" style="text;html=1;strokeColor=none;fillColor=none;align=center;verticalAlign=middle;whiteSpace=wrap;rounded=0;" vertex="1" parent="yGMEvP6t2i3Ru4Q6ysOB-19">
          <mxGeometry width="60" height="30" as="geometry" />
        </mxCell>
        <mxCell id="yGMEvP6t2i3Ru4Q6ysOB-22" value="" style="group" vertex="1" connectable="0" parent="1">
          <mxGeometry x="430" y="130" width="60" height="30" as="geometry" />
        </mxCell>
        <mxCell id="yGMEvP6t2i3Ru4Q6ysOB-23" value="" style="rounded=1;whiteSpace=wrap;html=1;" vertex="1" parent="yGMEvP6t2i3Ru4Q6ysOB-22">
          <mxGeometry width="60" height="30" as="geometry" />
        </mxCell>
        <mxCell id="yGMEvP6t2i3Ru4Q6ysOB-24" value="&lt;font style=&quot;font-size: 20px;&quot;&gt;TMO&lt;/font&gt;" style="text;html=1;strokeColor=none;fillColor=none;align=center;verticalAlign=middle;whiteSpace=wrap;rounded=0;" vertex="1" parent="yGMEvP6t2i3Ru4Q6ysOB-22">
          <mxGeometry width="60" height="30" as="geometry" />
        </mxCell>
        <mxCell id="yGMEvP6t2i3Ru4Q6ysOB-25" style="edgeStyle=orthogonalEdgeStyle;rounded=0;orthogonalLoop=1;jettySize=auto;html=1;exitX=0.5;exitY=1;exitDx=0;exitDy=0;entryX=0.5;entryY=0;entryDx=0;entryDy=0;" edge="1" parent="1" source="yGMEvP6t2i3Ru4Q6ysOB-6" target="yGMEvP6t2i3Ru4Q6ysOB-24">
          <mxGeometry relative="1" as="geometry">
            <Array as="points">
              <mxPoint x="500" y="120" />
              <mxPoint x="460" y="120" />
            </Array>
          </mxGeometry>
        </mxCell>
        <mxCell id="yGMEvP6t2i3Ru4Q6ysOB-26" style="edgeStyle=orthogonalEdgeStyle;rounded=0;orthogonalLoop=1;jettySize=auto;html=1;exitX=0.5;exitY=1;exitDx=0;exitDy=0;entryX=0.5;entryY=0;entryDx=0;entryDy=0;" edge="1" parent="1" source="yGMEvP6t2i3Ru4Q6ysOB-6" target="yGMEvP6t2i3Ru4Q6ysOB-18">
          <mxGeometry relative="1" as="geometry">
            <Array as="points">
              <mxPoint x="500" y="120" />
              <mxPoint x="540" y="120" />
            </Array>
          </mxGeometry>
        </mxCell>
        <mxCell id="yGMEvP6t2i3Ru4Q6ysOB-27" style="edgeStyle=orthogonalEdgeStyle;rounded=0;orthogonalLoop=1;jettySize=auto;html=1;exitX=0.5;exitY=1;exitDx=0;exitDy=0;entryX=0.5;entryY=0;entryDx=0;entryDy=0;" edge="1" parent="1" source="yGMEvP6t2i3Ru4Q6ysOB-6" target="yGMEvP6t2i3Ru4Q6ysOB-15">
          <mxGeometry relative="1" as="geometry">
            <Array as="points">
              <mxPoint x="500" y="120" />
              <mxPoint x="590" y="120" />
            </Array>
          </mxGeometry>
        </mxCell>
        <mxCell id="yGMEvP6t2i3Ru4Q6ysOB-28" style="edgeStyle=orthogonalEdgeStyle;rounded=0;orthogonalLoop=1;jettySize=auto;html=1;exitX=0.5;exitY=1;exitDx=0;exitDy=0;entryX=0.5;entryY=0;entryDx=0;entryDy=0;" edge="1" parent="1" source="yGMEvP6t2i3Ru4Q6ysOB-6" target="yGMEvP6t2i3Ru4Q6ysOB-21">
          <mxGeometry relative="1" as="geometry">
            <Array as="points">
              <mxPoint x="500" y="120" />
              <mxPoint x="410" y="120" />
            </Array>
          </mxGeometry>
        </mxCell>
        <mxCell id="yGMEvP6t2i3Ru4Q6ysOB-30" style="edgeStyle=orthogonalEdgeStyle;rounded=0;orthogonalLoop=1;jettySize=auto;html=1;exitX=0.5;exitY=1;exitDx=0;exitDy=0;entryX=0.5;entryY=0;entryDx=0;entryDy=0;" edge="1" parent="1" source="yGMEvP6t2i3Ru4Q6ysOB-18" target="yGMEvP6t2i3Ru4Q6ysOB-15">
          <mxGeometry relative="1" as="geometry">
            <Array as="points">
              <mxPoint x="540" y="170" />
              <mxPoint x="590" y="170" />
            </Array>
          </mxGeometry>
        </mxCell>
        <mxCell id="yGMEvP6t2i3Ru4Q6ysOB-32" value="" style="group" vertex="1" connectable="0" parent="1">
          <mxGeometry x="650" y="130" width="60" height="30" as="geometry" />
        </mxCell>
        <mxCell id="yGMEvP6t2i3Ru4Q6ysOB-33" value="" style="rounded=1;whiteSpace=wrap;html=1;" vertex="1" parent="yGMEvP6t2i3Ru4Q6ysOB-32">
          <mxGeometry width="60" height="30" as="geometry" />
        </mxCell>
        <mxCell id="yGMEvP6t2i3Ru4Q6ysOB-34" value="&lt;font style=&quot;font-size: 20px;&quot;&gt;Prf&lt;/font&gt;" style="text;html=1;strokeColor=none;fillColor=none;align=center;verticalAlign=middle;whiteSpace=wrap;rounded=0;" vertex="1" parent="yGMEvP6t2i3Ru4Q6ysOB-32">
          <mxGeometry width="60" height="30" as="geometry" />
        </mxCell>
        <mxCell id="yGMEvP6t2i3Ru4Q6ysOB-56" value="" style="group" vertex="1" connectable="0" parent="1">
          <mxGeometry x="710" y="80" width="60" height="30" as="geometry" />
        </mxCell>
        <mxCell id="yGMEvP6t2i3Ru4Q6ysOB-57" value="" style="rounded=1;whiteSpace=wrap;html=1;" vertex="1" parent="yGMEvP6t2i3Ru4Q6ysOB-56">
          <mxGeometry width="60" height="30" as="geometry" />
        </mxCell>
        <mxCell id="yGMEvP6t2i3Ru4Q6ysOB-58" value="&lt;font style=&quot;font-size: 20px;&quot;&gt;LDa&lt;/font&gt;" style="text;html=1;strokeColor=none;fillColor=none;align=center;verticalAlign=middle;whiteSpace=wrap;rounded=0;" vertex="1" parent="yGMEvP6t2i3Ru4Q6ysOB-56">
          <mxGeometry width="60" height="30" as="geometry" />
        </mxCell>
        <mxCell id="yGMEvP6t2i3Ru4Q6ysOB-59" value="" style="group" vertex="1" connectable="0" parent="1">
          <mxGeometry x="810" y="180" width="60" height="30" as="geometry" />
        </mxCell>
        <mxCell id="yGMEvP6t2i3Ru4Q6ysOB-60" value="" style="rounded=1;whiteSpace=wrap;html=1;" vertex="1" parent="yGMEvP6t2i3Ru4Q6ysOB-59">
          <mxGeometry width="60" height="30" as="geometry" />
        </mxCell>
        <mxCell id="yGMEvP6t2i3Ru4Q6ysOB-61" value="&lt;font style=&quot;font-size: 20px;&quot;&gt;Sat&lt;/font&gt;" style="text;html=1;strokeColor=none;fillColor=none;align=center;verticalAlign=middle;whiteSpace=wrap;rounded=0;" vertex="1" parent="yGMEvP6t2i3Ru4Q6ysOB-59">
          <mxGeometry width="60" height="30" as="geometry" />
        </mxCell>
        <mxCell id="yGMEvP6t2i3Ru4Q6ysOB-62" value="" style="group" vertex="1" connectable="0" parent="1">
          <mxGeometry x="730" y="180" width="60" height="30" as="geometry" />
        </mxCell>
        <mxCell id="yGMEvP6t2i3Ru4Q6ysOB-63" value="" style="rounded=1;whiteSpace=wrap;html=1;" vertex="1" parent="yGMEvP6t2i3Ru4Q6ysOB-62">
          <mxGeometry width="60" height="30" as="geometry" />
        </mxCell>
        <mxCell id="yGMEvP6t2i3Ru4Q6ysOB-64" value="&lt;font style=&quot;font-size: 20px;&quot;&gt;FMo&lt;/font&gt;" style="text;html=1;strokeColor=none;fillColor=none;align=center;verticalAlign=middle;whiteSpace=wrap;rounded=0;" vertex="1" parent="yGMEvP6t2i3Ru4Q6ysOB-62">
          <mxGeometry width="60" height="30" as="geometry" />
        </mxCell>
        <mxCell id="yGMEvP6t2i3Ru4Q6ysOB-65" value="" style="group" vertex="1" connectable="0" parent="1">
          <mxGeometry x="650" y="180" width="60" height="30" as="geometry" />
        </mxCell>
        <mxCell id="yGMEvP6t2i3Ru4Q6ysOB-66" value="" style="rounded=1;whiteSpace=wrap;html=1;" vertex="1" parent="yGMEvP6t2i3Ru4Q6ysOB-65">
          <mxGeometry width="60" height="30" as="geometry" />
        </mxCell>
        <mxCell id="yGMEvP6t2i3Ru4Q6ysOB-67" value="&lt;font style=&quot;font-size: 20px;&quot;&gt;Ref&lt;/font&gt;" style="text;html=1;strokeColor=none;fillColor=none;align=center;verticalAlign=middle;whiteSpace=wrap;rounded=0;" vertex="1" parent="yGMEvP6t2i3Ru4Q6ysOB-65">
          <mxGeometry width="60" height="30" as="geometry" />
        </mxCell>
        <mxCell id="yGMEvP6t2i3Ru4Q6ysOB-74" value="" style="group" vertex="1" connectable="0" parent="1">
          <mxGeometry x="770" y="130" width="60" height="30" as="geometry" />
        </mxCell>
        <mxCell id="yGMEvP6t2i3Ru4Q6ysOB-75" value="" style="rounded=1;whiteSpace=wrap;html=1;" vertex="1" parent="yGMEvP6t2i3Ru4Q6ysOB-74">
          <mxGeometry width="60" height="30" as="geometry" />
        </mxCell>
        <mxCell id="yGMEvP6t2i3Ru4Q6ysOB-76" value="&lt;font style=&quot;font-size: 20px;&quot;&gt;Mod&lt;/font&gt;" style="text;html=1;strokeColor=none;fillColor=none;align=center;verticalAlign=middle;whiteSpace=wrap;rounded=0;" vertex="1" parent="yGMEvP6t2i3Ru4Q6ysOB-74">
          <mxGeometry width="60" height="30" as="geometry" />
        </mxCell>
        <mxCell id="yGMEvP6t2i3Ru4Q6ysOB-77" style="edgeStyle=orthogonalEdgeStyle;rounded=0;orthogonalLoop=1;jettySize=auto;html=1;exitX=0.5;exitY=1;exitDx=0;exitDy=0;entryX=0.5;entryY=0;entryDx=0;entryDy=0;" edge="1" parent="1" source="yGMEvP6t2i3Ru4Q6ysOB-58" target="yGMEvP6t2i3Ru4Q6ysOB-34">
          <mxGeometry relative="1" as="geometry">
            <Array as="points">
              <mxPoint x="740" y="120" />
              <mxPoint x="680" y="120" />
            </Array>
          </mxGeometry>
        </mxCell>
        <mxCell id="yGMEvP6t2i3Ru4Q6ysOB-78" style="edgeStyle=orthogonalEdgeStyle;rounded=0;orthogonalLoop=1;jettySize=auto;html=1;exitX=0.5;exitY=1;exitDx=0;exitDy=0;entryX=0.5;entryY=0;entryDx=0;entryDy=0;" edge="1" parent="1" source="yGMEvP6t2i3Ru4Q6ysOB-58" target="yGMEvP6t2i3Ru4Q6ysOB-76">
          <mxGeometry relative="1" as="geometry">
            <Array as="points">
              <mxPoint x="740" y="120" />
              <mxPoint x="800" y="120" />
            </Array>
          </mxGeometry>
        </mxCell>
        <mxCell id="yGMEvP6t2i3Ru4Q6ysOB-79" style="edgeStyle=orthogonalEdgeStyle;rounded=0;orthogonalLoop=1;jettySize=auto;html=1;exitX=0.5;exitY=1;exitDx=0;exitDy=0;entryX=0.5;entryY=0;entryDx=0;entryDy=0;" edge="1" parent="1" source="yGMEvP6t2i3Ru4Q6ysOB-34" target="yGMEvP6t2i3Ru4Q6ysOB-67">
          <mxGeometry relative="1" as="geometry" />
        </mxCell>
        <mxCell id="yGMEvP6t2i3Ru4Q6ysOB-80" style="edgeStyle=orthogonalEdgeStyle;rounded=0;orthogonalLoop=1;jettySize=auto;html=1;exitX=0.5;exitY=1;exitDx=0;exitDy=0;entryX=0.5;entryY=0;entryDx=0;entryDy=0;" edge="1" parent="1" source="yGMEvP6t2i3Ru4Q6ysOB-76" target="yGMEvP6t2i3Ru4Q6ysOB-64">
          <mxGeometry relative="1" as="geometry">
            <Array as="points">
              <mxPoint x="800" y="170" />
              <mxPoint x="760" y="170" />
            </Array>
          </mxGeometry>
        </mxCell>
        <mxCell id="yGMEvP6t2i3Ru4Q6ysOB-81" style="edgeStyle=orthogonalEdgeStyle;rounded=0;orthogonalLoop=1;jettySize=auto;html=1;exitX=0.5;exitY=1;exitDx=0;exitDy=0;entryX=0.5;entryY=0;entryDx=0;entryDy=0;" edge="1" parent="1" source="yGMEvP6t2i3Ru4Q6ysOB-76" target="yGMEvP6t2i3Ru4Q6ysOB-61">
          <mxGeometry relative="1" as="geometry">
            <Array as="points">
              <mxPoint x="800" y="170" />
              <mxPoint x="840" y="170" />
            </Array>
          </mxGeometry>
        </mxCell>
      </root>
    </mxGraphModel>
  </diagram>
</mxfile>
